<?xml version="1.0" encoding="UTF-8"?>
<svg width="120px" height="120px" viewBox="0 0 120 120" version="1.1" xmlns="http://www.w3.org/2000/svg" xmlns:xlink="http://www.w3.org/1999/xlink">
    <title>A37F6034-618E-4045-B4F8-1A2F161AEB0B@1x</title>
    <g id="Sources" stroke="none" stroke-width="1" fill="none" fill-rule="evenodd">
        <g id="Log-Analysis---Add-New-Source---Step-2-Manage-bucket-notifications" transform="translate(-859.000000, -321.000000)">
            <g id="notification-illustration" transform="translate(859.000000, 321.000000)">
                <circle id="Oval" fill="#14B597" cx="59.8991597" cy="59.8991597" r="59.8991597"></circle>
                <g id="Group-4" transform="translate(39.000000, 35.399160)" fill="#F6F6F6">
                    <path d="M25.6666855,41.6785127 C25.8363561,42.1844838 25.9487365,42.8048954 25.9487365,43.3680867 C25.9487365,46.465639 23.4102775,49 20.3077166,49 C17.2051557,49 14.6666968,46.465639 14.6666968,43.3680867 C14.6666968,42.8048954 14.7790771,42.1845063 14.9487477,41.6785127 L14.9487477,41.6785127 Z M20.307694,1.66977543e-13 C22.6214147,1.66977543e-13 24.5384589,1.91394942 24.5384589,4.22393499 C24.5384589,4.50554192 24.5384589,4.73213632 24.4811687,4.95653427 C25.8363673,5.29535018 27.1319968,5.7463538 28.3175135,6.42173284 C25.8363673,8.45034802 24.2564305,11.4906801 24.2564305,14.9270483 C24.2564305,21.0099653 29.1635537,25.9092793 35.2564192,25.9092793 C35.7081521,25.9092793 36.2149526,25.854278 36.6666742,25.7970803 L36.6666742,25.7970803 L36.6666291,31.5411926 C38.8106679,31.5411926 40.615343,33.2879869 40.615343,35.4835319 C40.615343,37.6241096 38.8106679,39.4258713 36.6666291,39.4258713 L36.6666291,39.4258713 L3.9487139,39.4258713 C1.80467507,39.4258713 -7.10542736e-15,37.6241096 -7.10542736e-15,35.4835319 C-7.10542736e-15,33.2879869 1.80467507,31.5411926 3.9487139,31.5411926 L3.9487139,31.5411926 L3.9487139,20.3894411 C3.9487139,16.3350267 5.47139439,12.449626 8.23679155,9.51928517 C10.3809432,7.2092996 13.1440275,5.68913356 16.1342193,4.95653427 C16.1342193,4.72992861 16.0769292,4.44833294 16.0769292,4.22393499 C16.0769292,1.91394942 17.9939733,1.66977543e-13 20.307694,1.66977543e-13 Z M35.2564192,6.19745879 C40.0843425,6.19745879 44,10.1067951 44,14.9269244 C44,19.7470538 40.0843425,23.6563901 35.2564192,23.6563901 C30.428496,23.6563901 26.5128384,19.7470538 26.5128384,14.9269244 C26.5128384,10.1067951 30.428496,6.19745879 35.2564192,6.19745879 Z" id="Combined-Shape"></path>
                </g>
            </g>
        </g>
    </g>
</svg>