<?xml version="1.0" encoding="UTF-8"?>
<svg version="1.1" viewBox="0 0 24 24" xmlns="http://www.w3.org/2000/svg">
    <title>8A678580-4496-498B-81D4-7931F2395CBE@1x</title>
    <g fill="none" fill-rule="evenodd">
        <rect id="a" width="24" height="24" fill="#D8D8D8" fill-opacity="0"/>
        <rect x="1" y="1" width="22" height="22" rx="2.2" fill="#DA1B1B"/>
        <path d="m12.433 14.573c-0.28929-0.26653-0.36623-0.37069-0.15695-0.21445 0.16003 0.12254 0.41854 0.29716 0.43393 0.29716 0.0061551 0 0.10464 0.055143 0.21543 0.12254 0.11079 0.067397 0.20927 0.12254 0.22158 0.12254 0.0092326 0 0.083093 0.030635 0.16003 0.064334 0.20004 0.091906 0.24005 0.10722 0.46471 0.17462 0.3693 0.11029 0.50471 0.13479 0.87709 0.15011 0.36315 0.015318 0.49856 0.0030635 1.2772-0.10416 0.52318-0.070461 1.7019-0.073524 2.0158 0 0.2462 0.058207 0.4524 0.11641 0.57857 0.16849 0.04924 0.021445 0.10156 0.036762 0.11695 0.036762 0.015388 0 0.052318 0.012254 0.083093 0.027572 0.027698 0.015318 0.1508 0.076588 0.26774 0.13479 0.24005 0.11641 0.41239 0.20832 0.45855 0.24508 0.10156 0.076588 0.36623 0.23589 0.39085 0.23589 0.015388 0 0.027698 0.012254 0.027698 0.027572s0.027698 0.039826 0.06155 0.049016c0.14157 0.042889 0.040008 0.064334-0.34468 0.064334-0.52933 0-0.84632 0.073524-1.3633 0.31861-0.13541 0.064334-0.31391 0.14705-0.40008 0.18381-0.083093 0.033699-0.18157 0.076588-0.21543 0.091906-0.20004 0.082715-0.43701 0.13173-0.71399 0.14705-0.39085 0.018381-0.40316 0.045953-0.12926 0.29103 0.26467 0.23895 0.56319 0.33699 1.151 0.37375 0.34468 0.024508 0.56934 0.082715 0.65243 0.17462 0.058473 0.067397 0.070783 0.31861 0.027698 0.55143-0.021543 0.11948-0.080016 0.16237-0.080016 0.058207 0-0.067397-0.10156-0.30022-0.16003-0.37069-0.021543-0.027572-0.095403-0.082715-0.16311-0.12254-0.10771-0.067397-0.15695-0.073524-0.40316-0.073524-0.3016 0.0030636-0.42778 0.045953-0.63397 0.20219-0.14157 0.11029-0.20927 0.24202-0.20927 0.40438 0.0030775 0.15011 0.10771 0.30329 0.32314 0.46565 0.076938 0.06127 0.13541 0.11641 0.12618 0.1256-0.02462 0.024508-0.44624-0.088842-0.48317-0.13173-0.018465-0.024508-0.04924-0.042889-0.064628-0.042889-0.076938 0-0.34776-0.34618-0.46471-0.59739-0.095403-0.20526-0.10156-0.21445-0.16926-0.22364-0.033853-0.006127-0.11079 0.015318-0.16619 0.045953-0.12618 0.067397-0.57242 0.076588-0.73245 0.012254-0.2185-0.082715-0.40008-0.17156-0.40008-0.193 0-0.015318 0.076938-0.015318 0.16926-0.006127 0.15388 0.018381 0.16926 0.015318 0.16926-0.036762 0-0.058207-0.018465-0.073524-0.20312-0.16543-0.11387-0.055143-0.44932-0.28491-0.5755-0.39213-0.28005-0.23895-0.7263-0.67704-0.81554-0.80571-0.055395-0.079652-0.0061551-0.073524 0.086171 0.012254 0.080016 0.073524 0.38469 0.26653 0.4247 0.26653 0.01231 0.0030636 0.076938 0.027572 0.14464 0.06127s0.15388 0.058207 0.18773 0.06127c0.070783 0 0.11387-0.06127 0.076938-0.11641-0.092326-0.14705-1.5665-1.6451-2.142-2.172zm-6.5213-9.0098c0.0030775 0.006127 0.058473 0.076588 0.1231 0.16237 0.34161 0.45034 1.151 1.2254 1.708 1.639 0.16003 0.11948 0.30467 0.2267 0.32006 0.23895 0.006155 0.0040847 0.023936 0.015998 0.049924 0.033358l0.099165 0.066036c0.038982 0.02587 0.082751 0.054803 0.12789 0.084417s0.089248 0.058547 0.12857 0.084417l0.13195 0.087693 0.016456 0.011701c0.10464 0.082715 0.57857 0.34005 1.0925 0.59126 0.73245 0.35537 1.0217 0.4871 1.0833 0.4871 0.02462 0 0.055395 0.012254 0.07386 0.024508 0.015388 0.015318 0.11695 0.058207 0.22774 0.098033 0.11079 0.039826 0.21543 0.079651 0.23081 0.091906 0.018465 0.012254 0.13541 0.055143 0.26159 0.091906 0.12618 0.039826 0.2462 0.082715 0.26159 0.094969 0.018465 0.012254 0.080016 0.030635 0.13849 0.042889 0.058473 0.012254 0.12618 0.033699 0.15388 0.049016 0.02462 0.012254 0.1508 0.05208 0.27698 0.088842l0.074895 0.022498c0.097693 0.030194 0.18239 0.059604 0.20208 0.069407 0.027698 0.012254 0.095403 0.033699 0.15388 0.042889 0.058473 0.012254 0.13541 0.033699 0.16926 0.049016 0.033853 0.012254 0.11695 0.039826 0.18465 0.058207 0.067706 0.015318 0.18465 0.045953 0.26159 0.064334 0.076938 0.021445 0.16619 0.049016 0.20004 0.06127 0.033853 0.015318 0.11079 0.036762 0.16926 0.049016 0.058473 0.0091906 0.1231 0.030635 0.13849 0.042889 0.018465 0.012254 0.083093 0.033699 0.1508 0.042889 0.064628 0.012254 0.14157 0.033699 0.16926 0.049016 0.027698 0.012254 0.27082 0.094969 0.54164 0.18381 0.27082 0.085778 0.53549 0.17768 0.59088 0.20219 0.052318 0.024508 0.11695 0.042889 0.14157 0.042889 0.027698 0 0.058473 0.012254 0.067706 0.030635l0.015388 0.01475c0.013678 0.0090771 0.032827 0.015885 0.04924 0.015885 0.02462 0 0.11079 0.027572 0.19081 0.064334 0.080016 0.033699 0.17234 0.073524 0.20619 0.085779 0.11695 0.049016 0.3693 0.16237 0.50779 0.22976 1.0402 0.51773 1.3633 0.89761 1.2618 1.4919-0.021543 0.11948-0.055395 0.25427-0.080016 0.29716-0.02462 0.045953-0.043085 0.10416-0.043085 0.13173 0 0.024508-0.01231 0.058207-0.030775 0.076588-0.03693 0.036762-0.15388 0.39826-0.15388 0.47791 0 0.10722 0.095403 0.26653 0.19696 0.3278 0.095403 0.058207 0.36623 0.15318 0.78785 0.27878 0.12618 0.036762 0.25543 0.079652 0.28313 0.094969 0.030775 0.015318 0.080016 0.027572 0.10771 0.027572 0.030775 0 0.095403 0.021445 0.14464 0.045953 0.046163 0.024508 0.10156 0.045953 0.11695 0.045953 0.083093 0 0.63089 0.27572 0.80939 0.40745 0.14157 0.10416 0.26159 0.30022 0.26159 0.42583 0 0.042889 0.058473 0.14092 0.14157 0.24202 0.21543 0.24814 0.36007 0.4534 0.43701 0.62496 0.020004 0.041358 0.041546 0.085778 0.060012 0.12369l0.041546 0.08463c0.040008 0.073524 0.070783 0.39826 0.046163 0.49323-0.015108 0.065169-0.026095 0.070866-0.20489-0.1054l-0.14595-0.14581c-0.48009-0.48097-0.93557-0.81183-1.4988-1.0906-0.39085-0.18994-0.56011-0.26346-0.60935-0.26346-0.02462 0-0.086171-0.021445-0.13233-0.045953-0.04924-0.024508-0.11695-0.045953-0.1508-0.045953-0.033853 0-0.11695-0.021445-0.18465-0.045953-0.067706-0.024508-0.18157-0.042889-0.25236-0.045953-0.070783 0-0.16003-0.012254-0.20004-0.027572-0.12618-0.045953-0.85247-0.064334-1.4864-0.039826-0.91095 0.039826-1.6065-0.012254-1.9388-0.14399-0.70168-0.27878-1.4157-0.90374-1.9358-1.688-0.16311-0.24508-0.30775-0.45953-0.32622-0.48097-0.015388-0.021445-0.030775-0.05208-0.030775-0.067397s-0.018465-0.049016-0.040008-0.070461c-0.02462-0.021445-0.076938-0.098032-0.11695-0.16849-0.040008-0.070461-0.13233-0.22364-0.20619-0.34311-0.070783-0.11948-0.21235-0.37069-0.30775-0.56062-0.18157-0.34924-0.26159-0.48404-0.46471-0.79039-0.20927-0.31248-0.55395-0.68623-1.0033-1.0875-0.13233-0.11948-0.25543-0.22976-0.2739-0.24508-0.018465-0.018381-0.12926-0.10722-0.24928-0.19913-0.046778-0.036762-0.091587-0.072054-0.12911-0.10176l-0.085383-0.068231-0.016323-0.013823c-0.0092326-0.0091906-0.070783-0.055143-0.14157-0.1011-0.067706-0.045953-0.1508-0.10722-0.18465-0.13786-0.030775-0.027572-0.11387-0.088842-0.18465-0.13786-0.067706-0.045953-0.1508-0.10722-0.18465-0.13786-0.030775-0.027572-0.11387-0.088842-0.18157-0.13479-0.067706-0.045953-0.16311-0.11948-0.21543-0.16543-0.04924-0.042889-0.12618-0.10416-0.16926-0.13173-0.21543-0.14092-0.77554-0.65866-1.0833-1.0018-0.12926-0.14399-0.39392-0.52386-0.39392-0.56369 0-0.015318-0.018465-0.045953-0.03693-0.067397-0.04924-0.05208-0.27082-0.49323-0.27082-0.53918 0-0.021445-0.01231-0.036762-0.027698-0.036762-0.030775 0-0.064628-0.11029-0.040008-0.13479 0.0092326-0.0091906 0.018465-0.015318 0.02462-0.012254zm1.2618 7.429c0.01231-0.012254 0.043085 0 0.070783 0.024508 0.28005 0.27265 1.2464 0.80571 1.7265 0.94969 0.092326 0.027572 0.20004 0.064334 0.23697 0.076588 0.03693 0.015318 0.24928 0.05208 0.47086 0.079651 0.32006 0.039826 0.40931 0.042889 0.44624 0.012254 0.02462-0.021445 0.046163-0.055143 0.046163-0.073524 0-0.049016-0.29852-0.31248-0.46163-0.40745-0.076938-0.045953-0.14464-0.091906-0.15388-0.1011-0.0092326-0.012254-0.043085-0.036762-0.076938-0.055143-0.06155-0.033699-0.06155-0.033699 0.006155-0.036762 0.03693 0 0.073861 0.012254 0.086171 0.027572 0.0092326 0.015318 0.06155 0.039826 0.11387 0.05208 0.055395 0.0091906 0.12002 0.030635 0.14772 0.045953 0.02462 0.012254 0.10156 0.049016 0.16926 0.076588 0.2185 0.091906 0.60935 0.28491 0.80016 0.39519 0.10156 0.058207 0.20619 0.11335 0.23081 0.1256s0.052318 0.030635 0.06155 0.042889c0.0092326 0.0091905 0.070783 0.05208 0.13849 0.091906 0.13849 0.082715 0.78477 0.56062 0.93864 0.69236 0.055395 0.049016 0.13849 0.12254 0.18465 0.16543 0.29236 0.27265 0.42778 0.39213 0.50471 0.4534 0.04924 0.036762 0.080016 0.076588 0.070783 0.088842-0.018465 0.015318-0.15388-0.036762-0.65859-0.25427-0.052318-0.024508-0.11387-0.042889-0.13849-0.042889s-0.055395-0.012254-0.070783-0.024508c-0.018465-0.015318-0.13541-0.055143-0.26159-0.094969-0.12618-0.039826-0.25851-0.082715-0.29236-0.098032-0.06155-0.027572-0.20927-0.064334-0.47702-0.12254-0.076938-0.015318-0.16311-0.042889-0.19081-0.058207-0.030775-0.018381-0.080016-0.030635-0.11079-0.030635-0.10771 0-1.0771-0.30329-1.1018-0.34311-0.0092326-0.012254-0.03693-0.024508-0.06155-0.024508-0.043085 0-0.2185-0.076588-0.62781-0.26959-0.058473-0.030635-0.12618-0.070461-0.14772-0.091906-0.021543-0.018381-0.055395-0.036762-0.070783-0.036762-0.02462 0-0.3016-0.1593-0.38161-0.22057-0.015388-0.012254-0.16926-0.1256-0.33853-0.25121-0.34161-0.25427-0.85863-0.73218-0.82785-0.76282zm12.476 1.8657c-0.17234-0.06127-0.21543-0.06127-0.21543-0.006127 0 0.076588 0.03693 0.14092 0.076938 0.14092 0.02462 0 0.06155 0.018381 0.083093 0.039826 0.021543 0.021445 0.089248 0.067397 0.14772 0.10416 0.058473 0.036762 0.14772 0.10722 0.19696 0.1593 0.1508 0.15624 0.2739 0.11335 0.20004-0.067397-0.073861-0.18687-0.17542-0.26653-0.48933-0.37069zm-15.972-7.3524c0-0.018381 0.12926 0.091906 0.28621 0.24508 0.41239 0.40438 0.63397 0.60658 0.80631 0.73524 0.086171 0.064334 0.16003 0.1256 0.16926 0.13786 0.0092326 0.0091906 0.16926 0.13173 0.35392 0.26959 0.18773 0.13786 0.35392 0.2604 0.3693 0.27265 0.018465 0.012254 0.086171 0.058207 0.15388 0.098033 0.067706 0.039826 0.13849 0.085778 0.15388 0.1011 0.11387 0.091906 0.81554 0.52386 1.0925 0.67091 0.44009 0.23895 0.57242 0.30942 0.60012 0.33086 0.018465 0.012254 0.10771 0.064334 0.20004 0.11641 0.38469 0.20526 0.76323 0.41664 0.95095 0.53612 0.23697 0.14705 0.74476 0.49016 0.8217 0.55756 0.56626 0.47791 0.75092 0.65559 0.97557 0.94969 0.01231 0.015318 0.04924 0.064334 0.083093 0.10416 0.033853 0.039826 0.06155 0.091906 0.06155 0.11641 0 0.021445 0.01231 0.039826 0.02462 0.039826 0.015388 0 0.043085 0.033699 0.06155 0.076588 0.018465 0.042889 0.030775 0.076588 0.021543 0.076588-0.006155 0-0.11387-0.1011-0.24005-0.2267-0.22466-0.22364-0.67398-0.57288-0.95403-0.74137-0.37238-0.22364-0.46778-0.27265-0.97557-0.5208-0.86478-0.4197-1.111-0.54224-1.3387-0.67091-0.28929-0.1593-1.1972-0.69542-1.2156-0.71993-0.0092326-0.0091906-0.070783-0.05208-0.13849-0.091906-0.067706-0.039826-0.14157-0.091906-0.16619-0.11641-0.02462-0.021445-0.080016-0.064334-0.1231-0.091906-0.10156-0.064334-0.42162-0.30329-0.53857-0.40438-0.46778-0.39826-0.81862-0.75669-1.0433-1.0569-0.06155-0.085778-0.12618-0.16849-0.14464-0.18994-0.046163-0.055143-0.30775-0.56981-0.30775-0.60351zm-0.67706-2.4845c0-0.05208 0.086171 0 0.14464 0.085778 0.13541 0.19913 1.4895 1.4919 1.8865 1.8013l0.055149 0.044017c0.072383 0.057937 0.13689 0.11038 0.15412 0.12754 0.021543 0.021445 0.12618 0.10416 0.23081 0.18381 0.10464 0.079651 0.22466 0.17768 0.26774 0.21445 0.043085 0.039826 0.086171 0.070461 0.095403 0.070461s0.046163 0.024508 0.083093 0.05208c0.033853 0.030635 0.086171 0.073524 0.12002 0.094969 0.042059 0.028593 0.11113 0.076588 0.18898 0.13105l0.24164 0.16986c0.077166 0.054463 0.14487 0.10246 0.18488 0.13105 0.070783 0.05208 0.14464 0.094969 0.16311 0.094969 0.015388 0 0.030775 0.012254 0.030775 0.024508 0 0.015318 0.030775 0.042889 0.070783 0.064334 0.098481 0.05208 0.15695 0.088842 0.49856 0.31248 0.16926 0.11029 0.36315 0.23283 0.43085 0.27265 0.067706 0.039826 0.12926 0.082715 0.13849 0.091906s0.070783 0.05208 0.13849 0.091906c0.033853 0.019913 0.068475 0.041357 0.096557 0.059356l0.057319 0.038677c0.018465 0.015318 0.23081 0.17462 0.47702 0.35537 0.53241 0.39519 0.5755 0.42889 0.95403 0.80264 0.31391 0.31554 0.41547 0.42889 0.49856 0.5545 0.027698 0.042889 0.070783 0.098033 0.092326 0.12254 0.055395 0.058207 0.24005 0.35843 0.24005 0.39213 0 0.015318 0.018465 0.049016 0.040008 0.070461 0.04924 0.058207 0.17542 0.28797 0.17542 0.3278 0 0.067397-0.055395 0.027572-0.13849-0.098033-0.20004-0.29716-0.86171-0.89455-1.3849-1.2438-0.18157-0.12254-0.79708-0.49323-0.90787-0.54837-0.043085-0.018381-0.098481-0.049016-0.1231-0.067397-0.15695-0.1011-0.46778-0.27572-0.48933-0.27572-0.015388 0-0.04924-0.018381-0.070783-0.039826-0.021543-0.021445-0.10156-0.079651-0.1785-0.1256-0.2185-0.12867-0.22774-0.13786-0.7663-0.49323-0.096942-0.064334-0.1808-0.12007-0.25377-0.16875l-0.18837-0.12637c-0.21337-0.14433-0.28724-0.20015-0.3611-0.2655-0.040008-0.036762-0.086171-0.067397-0.095403-0.067397-0.0092326 0-0.052318-0.027572-0.092326-0.06127-0.040008-0.033699-0.086171-0.070461-0.10464-0.082715-0.60627-0.47178-1.1787-1.0048-1.5757-1.4644-0.086171-0.1011-0.18773-0.21751-0.22158-0.25734-0.03693-0.039826-0.064628-0.082715-0.064628-0.091906 0-0.0091906-0.030775-0.05208-0.070783-0.094969-0.03693-0.042889-0.10464-0.13173-0.14464-0.19913-0.040008-0.067397-0.080016-0.12867-0.089248-0.13786-0.046163-0.039826-0.43393-0.82102-0.43393-0.8731z" fill="#fff" fill-rule="nonzero"/>
    </g>
</svg>