<?xml version="1.0" encoding="UTF-8"?>
<svg width="119px" height="119px" viewBox="0 0 119 119" version="1.1" xmlns="http://www.w3.org/2000/svg" xmlns:xlink="http://www.w3.org/1999/xlink">
    <title>autorem placeholder illustration</title>
    <g id="Policies-✅" stroke="none" stroke-width="1" fill="none" fill-rule="evenodd">
        <g id="Cloud-Security---Add-new-policy---Remediation---no-remediation" transform="translate(-839.000000, -355.000000)">
            <g id="Group-8" transform="translate(290.000000, 94.000000)">
                <g id="autorem-placeholder-illustration" transform="translate(549.000000, 261.000000)">
                    <circle id="Oval" fill="#4F627C" cx="59.4" cy="59.4" r="59.4"></circle>
                    <path d="M93.9429108,87.5810869 L23.598624,87.5810869 C22.163232,87.5810869 21,86.417855 21,84.982463 L21,32.598624 C21,31.163232 22.163232,30 23.598624,30 L93.9429108,30 C95.3783027,30 96.5415529,31.163232 96.5415529,32.598624 L96.5415529,84.982463 C96.5435507,86.415839 95.3783027,87.5810869 93.9429108,87.5810869 Z" id="Path" fill="#23344E" fill-rule="nonzero"></path>
                    <rect id="Rectangle" fill="#4F627C" x="25.1437446" y="36.144" width="49.152" height="8.64" rx="0.576"></rect>
                    <rect id="Rectangle-Copy-4" fill="#86A3C3" x="25.1437446" y="60.912" width="66.24" height="8.64" rx="0.576"></rect>
                    <rect id="Rectangle-Copy-2" fill="#86A3C3" x="25.1437446" y="47.952" width="23.808" height="8.64" rx="0.576"></rect>
                    <rect id="Rectangle-Copy-5" fill="#4F627C" x="25.1437446" y="73.872" width="23.808" height="8.64" rx="0.576"></rect>
                    <rect id="Rectangle-Copy-3" fill="#4F627C" x="54.2317446" y="47.952" width="37.728" height="8.64" rx="0.576"></rect>
                    <rect id="Rectangle-Copy-6" fill="#86A3C3" x="54.2317446" y="73.872" width="37.728" height="8.64" rx="0.576"></rect>
                    <rect id="Rectangle-Copy" fill="#86A3C3" x="79.2877446" y="36.144" width="12.672" height="8.64" rx="0.576"></rect>
                </g>
            </g>
        </g>
    </g>
</svg>