<?xml version="1.0" encoding="UTF-8"?>
<svg width="77px" height="87px" viewBox="0 0 77 87" version="1.1" xmlns="http://www.w3.org/2000/svg" xmlns:xlink="http://www.w3.org/1999/xlink">
    <title>no chart illustration</title>
    <g id="Data-Visualization" stroke="none" stroke-width="1" fill="none" fill-rule="evenodd">
        <g id="Linegraph-Chart-no-data" transform="translate(-881.000000, -242.000000)">
            <g id="no-chart-illustration" transform="translate(881.000000, 242.000000)">
                <path d="M76.205392,65.458008 C76.205392,65.39274 76.205392,65.326212 76.203876,65.259516 L76.203876,65.25666 C76.195392,64.77618 76.161372,64.2957 76.097532,63.816564 C76.888476,57.793932 73.316544,51.611196 65.384676,47.031516 C50.95818,38.70132 27.3483,38.70132 12.920376,47.031516 C7.977816,49.884744 4.729116,53.358816 3.174192,57.03138 C2.686572,58.176636 2.364852,59.340288 2.210376,60.51108 C2.062956,61.609548 2.062956,62.713728 2.206092,63.81228 C2.133852,64.370712 2.098404,64.932 2.09926958,65.493372 C2.09926958,65.73294 2.106804,65.973852 2.119572,66.21342 C2.41584,71.464932 6.01608,76.665456 12.920292,80.651256 C13.0011,80.698044 13.081908,80.744832 13.165488,80.79162 L13.165488,73.830708 L24.487848,67.251072 C24.455256,67.219908 24.422664,67.188744 24.390072,67.156152 C24.3348,67.102308 24.279528,67.047036 24.227112,66.990252 C24.225684,66.990252 24.222828,66.987396 24.222828,66.986052 C24.177468,66.940692 24.133536,66.892476 24.089604,66.845688 C24.02442,66.774792 23.959236,66.70398 23.896824,66.631656 C23.85432,66.582012 23.811816,66.533796 23.772084,66.484236 C23.675652,66.370836 23.585016,66.256008 23.498496,66.141264 C23.465904,66.097332 23.433312,66.051972 23.40072,66.00804 C23.132844,65.638104 22.904616,65.259684 22.718976,64.87698 C22.69344,64.825908 22.669332,64.773492 22.645308,64.722504 C22.6212,64.671516 22.599948,64.620444 22.577268,64.569456 C22.556016,64.518384 22.534764,64.465968 22.514856,64.416324 C22.497888,64.376592 22.483692,64.338372 22.469496,64.298724 C22.436904,64.213632 22.40574,64.128624 22.378776,64.042188 C22.367436,64.01094 22.358952,63.97986 22.34904,63.948612 C22.340556,63.921732 22.332072,63.896196 22.324932,63.87066 C22.320732,63.857892 22.316448,63.845124 22.313592,63.832356 C22.310736,63.823872 22.30788,63.816732 22.306536,63.809676 C22.87068,61.846512 24.453912,59.967096 27.061944,58.461732 C32.18586,55.503588 39.8244,54.826044 46.100712,56.426328 L46.100712,56.427672 C47.968872,56.902524 49.71792,57.581496 51.243108,58.461648 C53.549244,59.793972 55.054524,61.418364 55.760376,63.133476 C58.019724,63.704676 63.353472,65.075388 67.485264,66.13698 C70.229376,66.842832 72.443364,67.412688 72.874284,67.52466 C72.88134,67.526088 72.885624,67.527516 72.89268,67.528944 C72.929556,67.538856 72.94938,67.544568 72.94938,67.544568 L72.94938,74.322612 C75.132288,71.51466 76.216644,68.48562 76.205392,65.458008 Z" id="Path" fill="#86A3C3"></path>
                <path d="M72.892176,67.529196 C72.886296,67.527684 72.881088,67.526256 72.874368,67.524576 C72.443784,67.413276 70.228872,66.842832 67.485852,66.137484 C62.104812,64.7535 54.68442,62.848632 54.671652,62.8637456 C50.062236,67.093908 40.943196,68.715276 33.788748,67.766748 C31.201044,67.423524 28.87038,66.744048 27.103104,65.730168 L13.165152,73.830708 L13.165152,73.830876 L13.165152,73.831128 L13.165152,80.7912 C27.614328,88.981872 51.038232,88.934916 65.384928,80.651256 C68.641692,78.771756 71.163288,76.621104 72.9498,74.32278 L72.9498,67.543812 C72.9498,67.543812 72.929472,67.53852 72.892176,67.529196 Z" id="Path" fill="#0F1623"></path>
                <g id="Group" fill="#86A3C3">
                    <polygon id="Path" points="31.704204 0 31.704204 23.081604 25.955916 26.400948 25.955412 3.167388"></polygon>
                    <polygon id="Path" points="23.0811 13.499052 23.0811 28.241388 17.332308 31.379712 17.332308 16.818564"></polygon>
                    <polygon id="Path" points="14.595672 12.97548 14.595672 33.070968 8.84688 36.209292 8.84688 16.295076"></polygon>
                    <polygon id="Path" points="5.79726 5.69478 5.79726 37.980348 0.0861 41.33682 0.048552 9.014292"></polygon>
                </g>
                <path d="M51.243192,55.195896 C44.594088,51.357516 33.71256,51.357516 27.062028,55.195896 C23.019528,57.530424 21.434868,60.766356 22.30662,63.809508 C22.870764,61.846344 24.453996,59.966928 27.062028,58.461564 C32.185944,55.50342 39.824484,54.825876 46.100796,56.42616 L46.100796,56.427504 C47.968956,56.902356 49.718004,57.581328 51.243192,58.46148 C53.549328,59.793804 55.054608,61.418196 55.76046,63.133308 C55.852608,63.357252 55.93056,63.582624 55.995744,63.807996 C55.98726,63.837816 55.98012,63.867552 55.971636,63.897288 C56.039676,63.674772 56.09352,63.452172 56.133252,63.228228 C56.659092,60.359544 55.029072,57.383004 51.243192,55.195896 Z M76.203876,65.259516 L76.203876,65.25666 C76.195392,64.77618 76.161372,64.2957 76.097532,63.816564 C76.097532,63.825048 76.096104,63.833532 76.094676,63.8421 C75.7701,66.2928 74.721192,68.71662 72.949464,70.994364 L72.949464,74.322444 C75.132288,71.514576 76.216644,68.485536 76.205304,65.457924 C76.205304,65.39274 76.205304,65.326212 76.203876,65.259516 Z M2.21046,63.8421 L2.206176,63.812364 C2.133936,64.370796 2.098488,64.932084 2.09979518,65.493456 C2.09979518,65.733024 2.106888,65.973936 2.119656,66.213504 C2.415924,71.465016 6.016164,76.66554 12.920376,80.65134 C13.001184,80.698128 13.081992,80.744916 13.165572,80.791704 L13.165572,77.462196 C13.081908,77.416836 13.001184,77.370048 12.920376,77.32326 C6.435828,73.578372 2.865324,68.764836 2.21046,63.8421 Z" id="Shape" fill="#0F1623"></path>
                <path d="M13.165152,70.868616 L13.165152,80.7912 C13.082748,80.745168 13.001268,80.698212 12.919788,80.651256 C6.016248,76.66512 2.41542,71.465688 2.120244,66.213588 L2.210292,65.858016 L2.210292,55.697712 L3.17352,57.030876 L4.150188,58.3842 L13.165152,70.868616 Z" id="Path" fill="#0F1623"></path>
                <path d="M72.874116,67.52466 C71.092392,69.787452 68.596668,71.903664 65.385012,73.757292 C51.038316,82.040952 27.614412,82.087908 13.165236,73.897236 L13.165236,73.831128 L27.102684,65.730504 C33.756072,69.54696 48.395088,68.623968 54.67182,62.8637451 C54.690888,62.84082 71.60034,67.195968 72.874116,67.52466 Z" id="Path" fill="#30415C"></path>
                <path d="M46.10046,46.567752 L46.10046,56.426076 C39.823728,54.82554 32.186028,55.504092 27.06228,58.461732 C24.454416,59.967432 22.8711,61.846932 22.306536,63.808752 C22.308468,63.816396 22.311324,63.82404 22.313256,63.831768 C22.31712,63.8442 22.3209,63.85764 22.324764,63.870072 L20.731872,64.368444 L16.707432,48.38862 L16.475508,47.466636 L21.242676,46.688376 L37.24266,44.077656 L45.537828,42.724332 L45.78126,44.390052 L46.10046,46.567752 Z" id="Path" fill="#0F1623"></path>
                <polygon id="Path" fill="#0F1623" points="25.992708 61.887168 13.165152 70.868616 13.165152 73.831128 27.1026 65.730504 27.090168 63.345912 27.086304 62.577312"></polygon>
                <path d="M13.165152,70.868616 C13.082748,70.822584 13.001268,70.775628 12.919788,70.728672 C6.435072,66.985044 2.865912,62.17092 2.210376,57.248436 C2.209452,57.23886 2.20752,57.228276 2.206512,57.2187 C1.417752,51.196908 4.989768,45.01602 12.919788,40.4376 C25.371612,33.24846 44.6628,32.264148 58.98648,37.48374 L46.100544,46.566744 L46.100544,46.567668 C39.823812,44.966124 32.186112,45.644676 27.062364,48.6024 C23.019696,50.936172 21.434448,54.172776 22.30662,57.214836 C22.308552,57.22248 22.311408,57.230208 22.31334,57.237852 C22.324848,57.277164 22.336356,57.315468 22.348788,57.35478 C22.358364,57.38544 22.36794,57.417108 22.378524,57.447768 C22.406328,57.534036 22.436988,57.619296 22.46958,57.70464 C22.483944,57.743952 22.498308,57.782256 22.514604,57.821568 C22.534764,57.872388 22.555848,57.924132 22.577856,57.975876 C22.599864,58.026696 22.621956,58.077432 22.645896,58.128252 C22.668912,58.179996 22.693776,58.23174 22.718724,58.283484 C22.9047,58.665852 23.13276,59.043516 23.400132,59.413452 C23.432724,59.458476 23.465316,59.502576 23.498832,59.546676 C23.5851,59.661672 23.676156,59.776668 23.772,59.89074 C23.812236,59.939628 23.854404,59.988516 23.89758,60.037404 C23.959908,60.109308 24.024084,60.181128 24.090192,60.252108 C24.133284,60.299064 24.177384,60.34602 24.222492,60.392052 C24.223416,60.393984 24.225348,60.395916 24.22728,60.39684 C24.280032,60.452448 24.334632,60.507972 24.39024,60.562656 C24.439128,60.611544 24.48894,60.660432 24.53976,60.708312 C24.6624,60.826164 24.789912,60.941244 24.922212,61.05624 C24.969168,61.097484 25.017132,61.13772 25.065012,61.177956 C25.203948,61.294884 25.34868,61.410888 25.497276,61.524876 C25.565316,61.57662 25.633356,61.628364 25.703328,61.679184 C25.765656,61.725216 25.828908,61.771164 25.89216,61.816272 C25.899804,61.821984 25.907532,61.826772 25.914168,61.831644 C25.94004,61.849872 25.96692,61.869024 25.992792,61.887252 L25.996656,61.890108 C26.038824,61.918836 26.080068,61.947648 26.12316,61.976376 C26.326356,62.114388 26.536272,62.249544 26.754756,62.38176 C26.794068,62.406708 26.834304,62.430648 26.87454,62.454588 C26.93586,62.491044 26.998188,62.527416 27.06144,62.563872 C27.069084,62.56866 27.077736,62.573448 27.086388,62.577312 L27.086388,62.578236 L13.165152,70.868616 Z" id="Path" fill="#4F627C"></path>
                <polygon id="Path" fill="#0F1623" points="58.986564 37.48374 58.986564 44.049852 46.10046 53.161332 46.10046 46.567752"></polygon>
                <g id="Group" transform="translate(46.788000, 6.468000)">
                    <g id="Path">
                        <polygon fill="#4F627C" points="17.678724 28.105896 0.0231 17.911992 0.023436 2.621976 17.678724 12.815208"></polygon>
                        <polygon fill="#30415C" points="0.0231 0.073416 0.023436 2.621976 17.678724 12.815208 17.678724 10.2669"></polygon>
                    </g>
                    <g transform="translate(8.316000, 9.240000)" fill="#86A3C3" id="Path" opacity="0.4">
                        <g>
                            <path d="M7.21938,4.645284 C7.170828,4.645284 7.121688,4.632936 7.076664,4.606812 L0.165564,0.617148 C0.028728,0.538188 -0.018144,0.363216 0.0609,0.226464 C0.13986,0.089712 0.314748,0.042756 0.451584,0.1218 L7.362684,4.111464 C7.499436,4.190508 7.546392,4.36548 7.467348,4.502232 C7.414344,4.59396 7.318164,4.645284 7.21938,4.645284 Z"></path>
                        </g>
                        <g transform="translate(0.000000, 1.764000)">
                            <path d="M7.21938,4.597404 C7.170828,4.597404 7.121688,4.585056 7.076664,4.558932 L0.165564,0.569268 C0.028728,0.490308 -0.018144,0.315336 0.0609,0.178584 C0.13986,0.041832 0.314748,-0.005124 0.451584,0.07392 L7.362684,4.063584 C7.499436,4.142628 7.546392,4.3176 7.467348,4.454352 C7.414344,4.54608 7.318164,4.597404 7.21938,4.597404 Z"></path>
                        </g>
                        <g transform="translate(0.000000, 3.444000)">
                            <path d="M7.21938,4.633524 C7.170828,4.633524 7.121688,4.621176 7.076664,4.595052 L0.165564,0.605388 C0.028728,0.526428 -0.018144,0.351456 0.0609,0.214704 C0.13986,0.077952 0.314748,0.030996 0.451584,0.11004 L7.362684,4.099704 C7.499436,4.178748 7.546392,4.35372 7.467348,4.490472 C7.414344,4.582116 7.318164,4.633524 7.21938,4.633524 Z"></path>
                        </g>
                        <g transform="translate(0.000000, 5.208000)">
                            <path d="M7.21938,4.585644 C7.170828,4.585644 7.121688,4.573296 7.076664,4.547172 L0.165564,0.557508 C0.028728,0.478548 -0.018144,0.303576 0.0609,0.166824 C0.13986,0.030072 0.314748,-0.016884 0.451584,0.06216 L7.362684,4.051824 C7.499436,4.130868 7.546392,4.30584 7.467348,4.442592 C7.414344,4.534236 7.318164,4.585644 7.21938,4.585644 Z"></path>
                        </g>
                        <g transform="translate(0.000000, 6.888000)">
                            <path d="M4.739532,3.172596 C4.69098,3.172596 4.64184,3.160248 4.596816,3.134124 L0.165564,0.593628 C0.028728,0.514668 -0.018144,0.339696 0.0609,0.202944 C0.13986,0.066192 0.314748,0.019236 0.451584,0.09828 L4.882836,2.638776 C5.019588,2.71782 5.066544,2.892792 4.9875,3.029544 C4.934496,3.121188 4.838316,3.172596 4.739532,3.172596 Z"></path>
                        </g>
                    </g>
                    <path d="M1.60524,5.258736 C1.60524,4.960116 1.816836,4.83798 2.075388,4.987332 L6.382404,7.473984 C6.640956,7.623252 6.852552,7.989744 6.852552,8.28828 L6.852384,20.013168 C6.852384,20.311788 6.640788,20.433924 6.382236,20.284572 L2.075472,17.798088 C1.81692,17.64882 1.605324,17.282328 1.605324,16.983792 L1.605324,5.258736 L1.60524,5.258736 Z" id="Path" fill="#86A3C3"></path>
                </g>
                <g id="Group" transform="translate(65.772000, 11.592000)">
                    <polygon id="Path" fill="#4F627C" points="9.225888 14.680176 0.020076 9.364908 0.020328 1.392552 9.225888 6.707484"></polygon>
                    <g opacity="0.4" transform="translate(0.924000, 4.200000)" fill="#86A3C3" id="Path">
                        <polygon points="0.059556 0.062076 0.059556 5.089476 1.311576 5.81238 1.31166 0.751968"></polygon>
                        <polygon points="1.937712 3.002244 1.937712 6.213312 3.189816 6.89682 3.189816 3.725316"></polygon>
                        <polygon points="3.78588 2.888256 3.78588 7.265244 5.037984 7.948752 5.037984 3.611244"></polygon>
                        <polygon points="5.702256 2.558388 5.702256 8.33448 6.946212 9.065616 6.95436 3.28146"></polygon>
                    </g>
                    <polygon id="Path" fill="#30415C" points="0.020076 0.063756 0.020328 1.392552 9.225888 6.707484 9.225888 5.378688"></polygon>
                </g>
            </g>
        </g>
    </g>
</svg>