<?xml version="1.0" encoding="UTF-8"?>
<svg width="40px" height="37px" viewBox="0 0 40 37" version="1.1" xmlns="http://www.w3.org/2000/svg" xmlns:xlink="http://www.w3.org/1999/xlink">
    <title>feedback</title>
    <g id="Support" stroke="none" stroke-width="1" fill="none" fill-rule="evenodd">
        <g id="Support---OSS" transform="translate(-881.000000, -292.000000)" fill="#86A3C3">
            <g id="Our-Blog" transform="translate(829.000000, 238.000000)">
                <g id="Group-2" transform="translate(32.000000, 34.000000)">
                    <path d="M46.3569652,20.8 C53.8828106,20.8 60,26.2371679 60,32.9236762 C60,35.4613434 59.1148811,37.958091 57.4248158,39.9718569 C57.7471083,40.5350669 58.1495895,40.9787398 58.6731265,41.3405733 C59.1966636,41.7024228 59.4780728,42.3474562 59.3177275,42.951586 C59.1966716,43.5557157 58.6731265,44.0386974 58.0301354,44.1189258 C57.586771,44.1991623 57.1450165,44.1991623 56.7016521,44.1991623 C55.3731687,44.1991623 54.1657492,43.9175492 53.120285,43.4345756 C52.472555,43.7772966 51.7881428,44.0494635 51.0684161,44.2817783 C50.2485114,51.1807036 43.6332227,56.5 35.7251693,56.5 C33.218262,56.5 30.7787226,55.9584807 28.6051206,54.9465759 L28.2007351,54.7513488 L28.149,54.724 L27.9729919,54.8068939 C26.4862805,55.4635923 24.9256931,55.665525 23.3748305,55.5542723 L23.0171499,55.5231035 L22.6838275,55.4843219 C20.9677968,55.2976662 20.4704127,53.203548 21.6931147,52.18147 L21.717,52.162 L22.3335959,51.6022459 L22.4328748,51.5089065 L22.4328748,51.5089065 L22.528423,51.418044 L22.873062,51.0797628 C22.9429357,51.0091229 23.0083146,50.9415371 23.0691599,50.8770686 L23.1570227,50.7827117 L23.165,50.773 L23.0602359,50.6424218 C21.440254,48.5770543 20.4811495,46.1515724 20.323217,43.5914764 L20.3055534,43.2064806 L20.3,42.8372563 C20.3,35.954847 25.9961543,30.3060327 33.3573128,29.2946829 C35.0876366,24.3841005 40.2788157,20.8 46.3569652,20.8 Z M35.7263767,32.1334322 C28.8306632,32.1334322 23.3,36.9831714 23.3,42.8372563 C23.3,45.1576039 24.1723515,47.371977 25.7682283,49.2120589 L25.995,49.465 L25.926,49.3874322 L26.0186099,49.4650815 C26.8709511,50.2259779 26.6516272,51.1168811 25.9915527,52.0485652 L25.8943262,52.1819307 L25.7960926,52.3099636 L25.719,52.404 L26.0199396,52.3271276 C26.3047663,52.2454604 26.5842666,52.1428239 26.8572174,52.0175763 L27.1279397,51.8847307 L27.3940238,51.7364461 L28.1463461,51.2909844 L28.9047168,51.7260694 C30.9035139,52.8727997 33.2705888,53.5 35.7251693,53.5 C42.6046007,53.5 48.151388,48.668759 48.1527526,42.8372563 C48.1527526,36.9831712 42.6220899,32.1334322 35.7263767,32.1334322 Z M46.360024,23.2166318 C41.7004884,23.2166318 37.7010082,25.6589852 35.9922159,29.1353751 L35.7263767,29.1334322 C43.7841525,29.1334322 50.4701388,34.6513531 51.1036687,41.7351804 L50.7872125,41.8644826 C51.3909223,41.6222024 51.9537407,41.381501 52.5181691,41.0589763 L53.1218788,40.7364596 L53.7255885,41.0983092 C54.3292982,41.4601587 55.0131806,41.7024389 55.7788455,41.8235871 C55.4172475,41.3406055 55.1342445,40.8167041 54.933008,40.2534941 L54.6908962,39.5691359 L55.173542,39.0452346 C56.7834346,37.3130737 57.6292722,35.2190794 57.6292722,32.962856 C57.6292722,27.605836 52.5573056,23.2166318 46.360024,23.2166318 Z" id="feedback"></path>
                </g>
            </g>
        </g>
    </g>
</svg>